# xmcd
#
# Track frame offsets:
#	150
#	16032
#	33428
#	46890
#	65252
#	79075
#	94882
#	108278
#	125400
#	148014
#	164646
#	182252
#
# Disc length: 2688 seconds
#
# Revision: 1
# Processed by: cddbd v1.5.2PL0 Copyright (c) Steve Scherf et al.
# Submitted via: audiograbber 1.83.01
#
DISCID=930a7e0c
DTITLE=Townes Van Zandt - Texas Rain (The Texas Hill Country Recordings)
DYEAR=1900
DGENRE=
TTITLE0=If I Needed You
TTITLE1=Pancho and Lefty
TTITLE2=Waiting Around to Die
TTITLE3=Blue Wind Blew
TTITLE4=Kathleen
TTITLE5=No Lonesome Tune
TTITLE6=Brother Flower
TTITLE7=Two Girls
TTITLE8=Marie
TTITLE9=Quicksilver Daydreams of Maria
TTITLE10=Snowin' on Raton
TTITLE11=At My Window
EXTD=
EXTT0=
EXTT1=
EXTT2=
EXTT3=
EXTT4=
EXTT5=
EXTT6=
EXTT7=
EXTT8=
EXTT9=
EXTT10=
EXTT11=
PLAYORDER=
